{
  "asset": {
    "version": "2.0",
    "generator": "gltfeditor.com"
  },
  "buffers": [
    {
      "uri": "data:application/octet-stream;base64,",
      "byteLength": 462572
    }
  ],
  "bufferViews": [
    {
      "buffer": 0,
      "byteLength": 52368,
      "byteOffset": 28032,
      "target": 34962,
      "byteStride": 8
    },
    {
      "buffer": 0,
      "byteLength": 78552,
      "byteOffset": 80400,
      "target": 34962,
      "byteStride": 12
    },
    {
      "buffer": 0,
      "byteLength": 52368,
      "byteOffset": 158952,
      "target": 34962,
      "byteStride": 16
    },
    {
      "buffer": 0,
      "byteLength": 28032,
      "byteOffset": 0,
      "target": 34963
    }
  ],
  "accessors": [
    {
      "bufferView": 0,
      "byteOffset": 0,
      "componentType": 5123,
      "normalized": false,
      "count": 3273,
      "max": [
        18,
        18,
        18,
        18
      ],
      "min": [
        0,
        0,
        0,
        0
      ],
      "type": "VEC4"
    },
    {
      "bufferView": 0,
      "byteOffset": 26184,
      "componentType": 5126,
      "normalized": false,
      "count": 3273,
      "max": [
        0.990805983543396,
        0.9880298972129822
      ],
      "min": [
        0.014079390093684196,
        0.008445978164672852
      ],
      "type": "VEC2"
    },
    {
      "bufferView": 1,
      "byteOffset": 0,
      "componentType": 5126,
      "normalized": false,
      "count": 3273,
      "max": [
        1,
        0.9999808073043823,
        0.9944415092468262
      ],
      "min": [
        -1,
        -0.9999808073043823,
        -1
      ],
      "type": "VEC3"
    },
    {
      "bufferView": 1,
      "byteOffset": 39276,
      "componentType": 5126,
      "normalized": false,
      "count": 3273,
      "max": [
        0.1809539943933487,
        0.569136917591095,
        1.5065499544143677
      ],
      "min": [
        -0.13100001215934753,
        -0.5691370964050293,
        0
      ],
      "type": "VEC3"
    },
    {
      "bufferView": 2,
      "byteOffset": 0,
      "componentType": 5126,
      "normalized": false,
      "count": 3273,
      "max": [
        1,
        0.989919900894165,
        0.9510763883590698,
        0.9196179509162903
      ],
      "min": [
        0.010080089792609215,
        0,
        0,
        0
      ],
      "type": "VEC4"
    },
    {
      "bufferView": 3,
      "byteOffset": 0,
      "componentType": 5123,
      "normalized": false,
      "count": 14016,
      "max": [
        3272
      ],
      "min": [
        0
      ],
      "type": "SCALAR"
    }
  ],
  "scene": 0,
  "scenes": [
    {
      "nodes": [
        21
      ],
      "name": "CesiumMan"
    }
  ],
  "nodes": [
    {
      "name": "Skeleton_neck_joint_2",
      "matrix": [
        -0.9976942539215088,
        -0.0004052457516081631,
        -0.06787518411874771,
        0,
        -0.00035114414640702307,
        0.9999997019767761,
        -0.0008090035989880562,
        0,
        0.06787549704313278,
        -0.0007833041017875075,
        -0.9976942539215088,
        0,
        -0.052039798349142075,
        -1.0439793918237683e-8,
        -0.000002618141024868237,
        1
      ]
    },
    {
      "name": "Skeleton_neck_joint_1",
      "children": [
        0
      ],
      "matrix": [
        0.1349189132452011,
        -0.004097050987184048,
        -0.9908479452133179,
        0,
        0.0009047813364304602,
        0.9999914765357971,
        -0.004011658485978842,
        0,
        0.9908559918403625,
        -0.0003552523266989738,
        0.13492147624492645,
        0,
        -0.0000024951939394668443,
        0.0000024191990632971283,
        0.0648387148976326,
        1
      ]
    },
    {
      "name": "Skeleton_arm_joint_L__2_",
      "matrix": [
        0.9292582869529724,
        -0.32668787240982056,
        -0.17249710857868195,
        0,
        0.31919029355049133,
        0.9450762271881104,
        -0.07034747302532196,
        0,
        0.18600453436374664,
        0.010311591438949108,
        0.9824952483177185,
        0,
        -0.0933246910572052,
        0.14300000667572021,
        0.0781477838754654,
        1
      ]
    },
    {
      "name": "Skeleton_arm_joint_L__3_",
      "children": [
        2
      ],
      "matrix": [
        0.9191188812255859,
        -0.28057119250297546,
        -0.2765846848487854,
        0,
        0.28098973631858826,
        0.9589182734489441,
        -0.03898218274116516,
        0,
        0.2761595845222473,
        -0.041888248175382614,
        0.9601982235908508,
        0,
        0.013221736066043377,
        0.21549950540065765,
        0.10933220386505127,
        1
      ]
    },
    {
      "name": "Skeleton_arm_joint_L__4_",
      "children": [
        3
      ],
      "matrix": [
        -0.9719067811965942,
        -0.07702214270830154,
        0.22240790724754333,
        0,
        -0.20666758716106415,
        0.7314610481262207,
        -0.6498101353645325,
        0,
        -0.11263294517993927,
        -0.6775192618370056,
        -0.7268298864364624,
        0,
        -0.00003753004421014339,
        0.08800013363361359,
        -0.00005900012911297381,
        1
      ]
    },
    {
      "name": "Skeleton_arm_joint_R__3_",
      "matrix": [
        0.6912568211555481,
        0.07184579968452454,
        0.7190290093421936,
        0,
        0.015618452802300453,
        0.9933270215988159,
        -0.11426901817321777,
        0,
        -0.7224406599998474,
        0.09021935611963272,
        0.6855219006538391,
        0,
        0.03137044236063957,
        -0.14300094544887543,
        -0.1176116019487381,
        1
      ]
    },
    {
      "name": "Skeleton_arm_joint_R__2_",
      "children": [
        5
      ],
      "matrix": [
        -0.6927295923233032,
        -0.20872879028320312,
        -0.690332293510437,
        0,
        -0.20614850521087646,
        0.9745728373527527,
        -0.08780736476182938,
        0,
        0.6911070346832275,
        0.08148421347141266,
        -0.7181445360183716,
        0,
        -0.035546258091926575,
        -0.21549884974956512,
        0.1042330414056778,
        1
      ]
    },
    {
      "name": "Skeleton_arm_joint_R",
      "children": [
        6
      ],
      "matrix": [
        -0.8357404470443726,
        -0.3481883704662323,
        -0.424620658159256,
        0,
        -0.5336874723434448,
        0.6970898509025574,
        0.47879350185394287,
        0,
        0.129288449883461,
        0.6267619132995605,
        -0.7684100270271301,
        0,
        -0.000039073471270967275,
        -0.08799988031387329,
        -0.000059469359257491305,
        1
      ]
    },
    {
      "name": "torso_joint_3",
      "children": [
        1,
        4,
        7
      ],
      "matrix": [
        0.2095639407634735,
        0.17524418234825134,
        0.9619637727737427,
        0,
        -0.01805642992258072,
        0.9843341708183289,
        -0.17538589239120483,
        0,
        -0.977628231048584,
        0.01938493363559246,
        0.2094450294971466,
        0,
        -0.25051677227020264,
        5.699690177607408e-7,
        -0.00007281452417373657,
        1
      ]
    },
    {
      "name": "Skeleton_torso_joint_2",
      "children": [
        8
      ],
      "matrix": [
        -0.015052753500640392,
        -0.0035089501179754734,
        -0.9998806715011597,
        0,
        -0.02422117255628109,
        0.9997016787528992,
        -0.0031436807475984097,
        0,
        0.9995924830436707,
        0.02417094074189663,
        -0.015133239328861237,
        0,
        0.000013476610547513701,
        0.0009866019245237112,
        0.14541690051555634,
        1
      ]
    },
    {
      "name": "leg_joint_L_5",
      "matrix": [
        0.8100792765617371,
        0.09432730078697205,
        0.5786833763122559,
        0,
        -0.08465620875358582,
        0.9954490661621094,
        -0.04375411942601204,
        0,
        -0.5801768898963928,
        -0.013544825837016106,
        0.8143779039382935,
        0,
        -0.06558384001255035,
        0.001090599806047976,
        0.02929132804274559,
        1
      ]
    },
    {
      "name": "leg_joint_L_3",
      "children": [
        10
      ],
      "matrix": [
        -0.517008900642395,
        0.027884813025593758,
        -0.8555269837379456,
        0,
        0.04945405200123787,
        0.998773455619812,
        0.0026678824797272682,
        0,
        0.8545511364936829,
        -0.04092990234494209,
        -0.5177531838417053,
        0,
        0.27578991651535034,
        0.0013972627930343151,
        0.00412250030785799,
        1
      ]
    },
    {
      "name": "leg_joint_L_2",
      "children": [
        11
      ],
      "matrix": [
        0.2778899371623993,
        0.011767142452299595,
        -0.9605404734611511,
        0,
        -0.0014816452749073505,
        0.9999284148216248,
        0.011821016669273376,
        0,
        0.9606116414070129,
        -0.0018617621390148997,
        0.2778877019882202,
        0,
        0.20916399359703064,
        0.009055482223629951,
        -0.16426976025104523,
        1
      ]
    },
    {
      "name": "leg_joint_L_1",
      "children": [
        12
      ],
      "matrix": [
        0.9205619096755981,
        0.026416195556521416,
        -0.389701783657074,
        0,
        -0.02138911373913288,
        0.9996228814125061,
        0.017234282568097115,
        0,
        0.3900100290775299,
        -0.007529847789555788,
        0.9207797050476074,
        0,
        0.0285201333463192,
        0.06762178242206573,
        -0.0629599541425705,
        1
      ]
    },
    {
      "name": "leg_joint_R_5",
      "matrix": [
        0.7617265582084656,
        -0.15295064449310303,
        0.6295862793922424,
        0,
        0.11590075492858887,
        0.988228440284729,
        0.0998520627617836,
        0,
        -0.6374470591545105,
        -0.003090410493314266,
        0.7704864144325256,
        0,
        -0.06681974232196808,
        -0.0010721739381551743,
        0.02635129541158676,
        1
      ]
    },
    {
      "name": "leg_joint_R_3",
      "children": [
        14
      ],
      "matrix": [
        -0.9822490215301514,
        0.006194266956299543,
        -0.18747395277023315,
        0,
        -0.0015255303587764502,
        0.999157190322876,
        0.04100567474961281,
        0,
        0.18757012486457825,
        0.04056384041905403,
        -0.9814126491546631,
        0,
        0.27546030282974243,
        -0.001431716838851571,
        -0.014104817993938923,
        1
      ]
    },
    {
      "name": "leg_joint_R_2",
      "children": [
        15
      ],
      "matrix": [
        0.8894317746162415,
        -0.010733302682638168,
        -0.4569421708583832,
        0,
        0.010057568550109863,
        0.9999422430992126,
        -0.003911134786903858,
        0,
        0.4569574296474457,
        -0.0011170380748808384,
        0.8894877433776855,
        0,
        0.26089081168174744,
        -0.009026043117046356,
        0.05167093873023987,
        1
      ]
    },
    {
      "name": "leg_joint_R_1",
      "children": [
        16
      ],
      "matrix": [
        -0.5879695415496826,
        -0.04815864562988281,
        -0.8074479103088379,
        0,
        -0.011184187605977058,
        0.9986149072647095,
        -0.0514163002371788,
        0,
        0.8088061213493347,
        -0.021200578659772873,
        -0.5876941084861755,
        0,
        0.02855721488595009,
        -0.06845435500144958,
        -0.06295865774154663,
        1
      ]
    },
    {
      "name": "Skeleton_torso_joint_1",
      "children": [
        9,
        13,
        17
      ],
      "matrix": [
        0.9971758723258972,
        0.008919459767639637,
        -0.07457538694143295,
        0,
        -0.0073226625099778175,
        0.9997385740280151,
        0.02165788784623146,
        0,
        0.07474903762340546,
        -0.021050622686743736,
        0.9969800710678101,
        0,
        2.429166912065739e-8,
        -0.0257401280105114,
        0.6528205275535583,
        1
      ]
    },
    {
      "name": "Cesium_Man",
      "mesh": 0
    },
    {
      "name": "Armature",
      "children": [
        18,
        19
      ],
      "matrix": [
        3.422854177870249e-8,
        -0.9999999403953552,
        0,
        0,
        0.9999999403953552,
        3.422854177870249e-8,
        0,
        0,
        0,
        0,
        1,
        0,
        0,
        0,
        0,
        1
      ]
    },
    {
      "name": "Z_UP",
      "children": [
        20
      ],
      "matrix": [
        1,
        0,
        0,
        0,
        0,
        3.422854177870249e-8,
        -0.9999999403953552,
        0,
        0,
        0.9999999403953552,
        3.422854177870249e-8,
        0,
        0,
        0,
        0,
        1
      ]
    }
  ],
  "meshes": [
    {
      "primitives": [
        {
          "attributes": {
            "JOINTS_0": 0,
            "TEXCOORD_0": 1,
            "NORMAL": 2,
            "POSITION": 3,
            "WEIGHTS_0": 4
          },
          "material": 0,
          "mode": 4,
          "indices": 5
        }
      ]
    }
  ],
  "materials": [
    {
      "pbrMetallicRoughness": {
        "baseColorFactor": [
          1,
          1,
          1,
          1
        ],
        "metallicFactor": 0,
        "roughnessFactor": 1,
        "baseColorTexture": {
          "index": 0,
          "texCoord": 0
        }
      },
      "emissiveFactor": [
        0,
        0,
        0
      ],
      "alphaMode": "OPAQUE",
      "doubleSided": false
    }
  ],
  "textures": [
    {
      "sampler": 0,
      "source": 0
    }
  ],
  "samplers": [
    {
      "magFilter": 9729,
      "minFilter": 9986,
      "wrapS": 10497,
      "wrapT": 10497
    }
  ],
  "images": [
    {
      "uri": "data:image/png;base64,",
      "mimeType": "image/png"
    }
  ]
}